<svg xmlns="http://www.w3.org/2000/svg" viewBox="0 0 3840 2160"><defs><style>.cls-1{fill:#cbbd92;}.cls-1,.cls-2,.cls-3{stroke:#000;stroke-width:4px;}.cls-1,.cls-3{stroke-miterlimit:10;}.cls-2,.cls-3{fill:#b2b2b2;}.cls-2{stroke-linejoin:bevel;}</style></defs><title>ModdedZoneMap01</title><g id="BG"><rect id="BG_Plain" data-name="BG Plain" class="cls-1" x="2.745" y="2.577" width="3837.255" height="2157.423"/></g><g id="ClawIsland"><polygon id="ClawZone01" class="cls-2" points="3215.5 624.5 3201 617 3199 607.5 3193.5 602 3197.5 589 3194 581 3196 571 3205 569 3198.5 562 3182.5 563.5 3184 582 3179.5 587 3185.5 599 3165.5 578 3171.5 572.5 3170 558 3164 552 3180 533.5 3191.5 532.5 3191.5 517 3160.5 518 3155 532.5 3152 517 3162.5 507 3178.5 501 3194 506 3209.5 499 3218.5 482.5 3227.5 479 3252.5 486.5 3268.5 480.5 3280.865 444.287 3282.5 439.5 3295.5 435 3306 437.5 3306.5 427.5 3304.5 424 3314 395 3341 422 3332 433.5 3330.5 436.5 3334.5 438 3342.5 435.5 3344 443 3380 435.5 3399 436.5 3401.5 458 3425 463 3445.5 459 3454 458 3455 450.5 3480 457 3481.5 473.5 3461.5 504.5 3442 527.5 3448.129 528.679 3455 530 3471 553 3471.5 539.5 3465 537.5 3464.5 527 3475.5 518.5 3484 527 3489.5 512 3500 514 3504 519.5 3516 523 3523.333 539.333 3509.333 542.667 3514 562 3510.333 575.667 3531.333 590.333 3522.667 610.667 3504.333 599.333 3483.667 605.667 3482 615.667 3472 614.667 3471.333 625.333 3482.333 641.667 3478.333 643 3477.667 663.333 3467 676.667 3452.667 681 3452.333 692.667 3428 694 3421.333 674.667 3410 669 3412.5 652.5 3396.5 631.5 3412.5 624 3409.5 615 3414.5 606.5 3388 605 3389.5 584 3384.5 580 3373 582.5 3366.5 575 3356 575.5 3352 563.5 3344 563 3342.5 560 3328 561 3314 563 3309 573.5 3292.5 565.5 3280 568.5 3275 574.5 3261 573 3255.333 570.667 3250.5 575 3248.5 591 3218 591.5 3211 603.5 3214.5 612 3215.5 624.5"/><g id="ClawZone02"><polygon id="ClawZone02Main" class="cls-3" points="3636 795 3617 799 3592.5 788.5 3575.5 764.5 3562 764.5 3566.5 754.5 3585.5 745 3601 767.5 3618 759.5 3623.5 748.5 3640.5 747 3644.5 728.5 3634 719.5 3633 707.5 3638 682 3656 659.5 3668.5 647.5 3669 636.5 3650.5 620.5 3639 634 3627.5 631.5 3597.5 606 3591 573 3596 566.5 3605.5 556 3594.5 546 3598.5 535.5 3593.5 532 3593 521 3611 514.5 3634 475.5 3633.5 457.5 3616 440.5 3628.5 435 3628 426.5 3620.5 414 3588.5 404 3580 404 3580 419.5 3570.5 428 3553.5 425.5 3558 437 3578 457.5 3579 483 3564.5 487.5 3525 485.5 3521 495 3523.5 511 3516 523 3523.333 539.333 3509.333 542.667 3514 562 3510.333 575.667 3531.333 590.333 3522.667 610.667 3504.333 599.333 3483.667 605.667 3482 615.667 3472 614.667 3471.333 625.333 3482.333 641.667 3478.333 643 3477.667 663.333 3467 676.667 3452.667 681 3452.333 692.667 3428 694 3421.333 674.667 3410 669 3398 664 3383 675 3367 676.5 3375 683.5 3376.5 696 3340 696 3314 716 3296.5 752.5 3296 761 3351 760 3380.5 772 3372 778.5 3369 808 3373 813.5 3377 825 3383 822 3437 850.5 3454 850 3474.5 823 3490.5 843 3530.5 853.5 3549.5 830.5 3571.5 830.5 3584 856.5 3605.5 859.5 3626.5 849 3630.5 832.5 3642.5 834.5 3649 818 3651.5 804 3646.5 788 3636 795"/><polygon id="ClawZone02IslandS" class="cls-3" points="3694.5 650.5 3686 633 3682.667 648.667 3678.5 650.5 3676.5 664 3666 674.5 3667 687.5 3651 698.5 3649 708.5 3659 724 3660.5 743.5 3650.5 747 3650 756.5 3661.5 760 3661 750.5 3674.5 740.5 3669 716 3679 711.5 3679 701 3669 697.5 3677.5 693.5 3680 675 3688.5 673.5 3689.5 662 3685 654 3694.5 650.5"/><polygon id="ClawZone02IslandS-2" data-name="ClawZone02IslandS" class="cls-3" points="3634 548 3639 553.5 3646 553.5 3650.5 556.5 3654.5 543 3648.5 541.5 3641.5 533.5 3633 541 3634 548"/></g></g></svg>