<?xml version="1.0" encoding="UTF-8"?>
<svg xmlns="http://www.w3.org/2000/svg" viewBox="0 0 3840 2160">
   <defs>
      <style>.cls-1{fill:#b2b2b2;stroke:#000;stroke-linejoin:bevel;stroke-width:4px;}</style>
   </defs>
   <title>plainmap03</title>
   <g id="LightningCountry">
      <polygon id="LightningZone03" class="cls-1" points="2932 505.333 2936 495.333 2970 471.667 2966.667 489.667 2982 498.333 3022.667 476.667 3028 460.333 3020.667 438.333 3047.667 412.333 3011.5 413 2997.5 409 2982.5 421.5 2966.5 421.5 2957.5 426 2946 446 2925.5 460.5 2912.5 461 2912.333 480.667 2917.667 480.667 2914 487.333 2919.667 507.667 2932 505.333" />
   </g>
   <g id="SnowCountry">
      <polygon id="SnowZone02" class="cls-1" points="2846.667 88.667 2845.333 82 2828.333 52.333 2806.667 33.667 2774.667 21.333 2752.667 23.333 2750 32 2711.333 44 2665 34.333 2624.667 38 2582.667 50.333 2521.333 102.333 2520 124 2510.333 148 2495 170.333 2469.333 181.333 2458.125 197.523 2462.667 200 2474.333 192.667 2487 193 2492 186.667 2500.667 194 2498.667 205 2502.667 213.667 2516 213 2537.667 220.667 2552 219.333 2541.667 227 2541.667 239.667 2561.667 252.333 2564.333 233.667 2572.333 234 2575.333 239.333 2581.333 225.667 2596 226.333 2603.333 238.333 2608.667 239 2612.667 247.333 2618.333 245.333 2622 241.333 2624 252.333 2637.667 260 2643.667 261 2638 285 2653 285.667 2653.667 294.333 2638.333 310.667 2636.333 324.333 2624.333 322 2608.333 314 2600.333 305.667 2590.333 307.333 2585.333 317 2575 315.333 2571 303.333 2579.333 291 2556.333 293.333 2555.333 283 2550 278.333 2549.667 273.667 2545.333 272 2530.667 275 2537 289.333 2529 307.667 2520.667 354.333 2531.667 357 2536.667 352 2560.667 349.333 2574 352 2569.667 362.667 2557 372.667 2555.333 389 2558.667 393 2576.333 387.667 2584 405.333 2578.333 427 2597 426 2610 440 2628.667 438.333 2636.333 431 2672.667 441.333 2675.667 436.667 2698.333 436 2702.667 443.333 2717.512 444.218 2724.5 438.5 2718 426 2739.5 412.5 2740.5 402 2767.5 398.5 2783 402.5 2790 408 2798 403.5 2802 390.5 2837 391 2831.5 376 2833.5 367 2812.667 370.667 2800.667 365 2786.333 343.333 2798.333 331 2799 324.333 2789.333 312.667 2790.667 296.333 2798 296.333 2817.667 307.667 2825 307.333 2830.5 316 2839.5 302.5 2834.5 291 2842.5 283 2830 269.5 2827 251.333 2804 242.667 2805.667 228.667 2799 218.667 2783.667 210 2780.333 222.333 2754.667 197.333 2730.667 200.667 2713.667 227 2688 230.667 2678.667 223.667 2677.333 204.667 2684.667 188.667 2676.667 164 2671.333 159 2672.333 153.333 2683.333 147.667 2700.333 114 2731.333 104 2736.333 93.333 2732.333 89 2732 75.667 2746 73.333 2762 85.667 2756.667 99.333 2762.333 102 2772.333 95 2776.667 84.333 2773.667 73 2779.333 65.667 2787 64.333 2785 85.667 2787.667 108.667 2803 114.667 2814 112 2823.333 103.667 2841.667 99 2842 92 2846.667 88.667" />
   </g>
   <g id="WindCountry">
      <path id="WindZone01" class="cls-1" d="M1672,954.5l3-21-10.5-2.5-1-9,32-13.5.5-6,32.5-7.5-9-13,3.5-12,12,1,1-11.5L1721.5,843l40-3-9-6,3.5-21.5,12-11,35-3,22,4,6-4,12,5.5-.5,6,7.5-1,1-9-4.5-7,31.5-13,10.5-16.5.5-20,7.5-8.5,47-7,11.5-12-5.5-7,37-29,11.5,13.5,27-.5,4.5,5-4.5,7,5,5,23-.5-2.5,5.5-8.5,2.5,6.5,10L2018,745l-8.5-1,8,6,32-2,3,7.5,19-6.5,5,3.5,11.5-8,3-10-5-.5-2.5-16-9.5-1,3.5-5,30,1.5,7,6,11.5-1,8-5,5.5,3,10-9.143,1.99,15.423,21.02-1.662L2161,736l19.5,19.5-.5,7.5-5,7.5,22,9,13-3.5v20.5l24.5,10.5,12-3,13.5,9,6.5,15.5-22,22.5-7.5,15.5,3.5,7-16.5,29L2205,914l-16-2.5,2.5-8.5-1.5-11-9,1-38.5-17.5-21.5-1-7.5,12,2,10.5-24,16.5L2088,929v12l18,1-6,5.5-2,19,7,6.5,12.5,2,35.5-9.5-.5,11,5,7.5,25-.5,8.5-8,1,4,7.5,1.5,4.5-6,22.5,5.5,16.5,12,37.5,4.5,2.5,10.5,11,4,5,5h8l12-5-1.5,10-18.5,18,10.5,23-.5,15-6,7-11-8-3,3,1.5,10,9.5,2,3,9-5,5-2-5.5s-5-2-5.5-.5-9,3-9,3l-11-4-8-16-25.5-4,1.5,13.5-14,8-10.5-10.5,1-8.5-18-5.5-13,16-10-5.5-8,7-26.5-12.5-26,15.5-10.5-2.5-18.5,16.5-29-2.5v9L2041,1122l-25.5-4.5-15,18.5-24,1.5-15-12s-13.5,6-14,8.5-6.5,12.5-6.5,12.5l-42-14.5-3.5-8.5,27.5-7-40-14.5-60-4.5-39.715,14.406L1784,1105l-6,2-14.5-13-13.5,1.5-9,11-10,1.5-3.3,13.07-32.2-15.57-28,2.5-17.5-12.5,13.5,1V1085l9.5-4,2.5-13.5-12.5-21-12-8.5,3.5-16.5-8.5-3.5-2.88-9.686-2.661-8.949L1635,981l4.5-21,17-7.5Z" />
      <polygon id="WindZone11" class="cls-1" points="1783.285 1111.906 1784 1105 1778 1107 1763.5 1094 1750 1095.5 1741 1106.5 1731 1108 1727.702 1121.07 1741 1127.5 1744.5 1122.5 1750.5 1126 1767.5 1123 1769.333 1120.667 1783.285 1111.906" />
   </g>
   <g id="The_Uncharted" data-name="The Uncharted">
      <g id="UnchartedSW">
         <polygon id="UnchartedSW01" class="cls-1" points="1369.333 1291.333 1411 1265 1415 1248 1405.5 1236.5 1400.5 1250 1400.5 1258.5 1394 1256.5 1390 1246.5 1372 1243.5 1366.5 1204.5 1375 1196 1376 1164 1341 1120.5 1353 1074 1384.5 1053 1402.5 1048.5 1406 1029 1392.5 1008.5 1418.5 1001.5 1424.002 992.512 1418.667 993.333 1408 981.667 1382 970 1355 976 1347.333 970.333 1333.667 970.667 1329.333 961 1317 960.667 1306 973 1290 972.667 1284.667 978.333 1273.667 980 1268.667 975.333 1254.667 976.667 1239.667 963.667 1212.667 964.333 1191.667 975 1189 963 1193 951.667 1206.333 948 1205.333 939.667 1213.667 923.333 1204.333 908.667 1200 907 1196.333 912.333 1200 926 1199.333 931.333 1186 934.333 1179.333 951 1174.667 950 1171.667 956 1173.667 961.333 1163.333 961.333 1159.667 966.333 1147.667 964.333 1134 974 1135.333 983.333 1109.333 1006.667 1132 1016 1131.333 1031.333 1167.333 1050.667 1169.333 1062 1160 1070 1158 1088 1145.333 1102 1142 1112.667 1146.667 1112.667 1148 1116.667 1145.333 1121.333 1139.333 1122 1136 1132.667 1146.667 1143.333 1140.667 1160 1108 1158 1062.667 1179.333 1064 1192 1081 1186 1107.5 1203 1157 1242.5 1148 1255.5 1140 1258.5 1152.667 1274.667 1159.333 1277.333 1170 1264.667 1226 1246.667 1252 1219.333 1350.667 1256.667 1369.333 1291.333" />
         <polygon id="UnchartedSW06" class="cls-1" points="1287.333 1526 1258 1560.667 1231.333 1555.333 1224 1562 1194 1554.667 1158.667 1558 1117.333 1531.333 1077.333 1536.667 1059.333 1560 1030.667 1576.333 1021 1566 1021.667 1550.667 1017.667 1544 1034.333 1527.667 1034.667 1511.667 1047 1502 1032.333 1483 1032.333 1464.667 1026.333 1459 1026.333 1449.667 1036.333 1440 1035 1423.333 1045.667 1412 1045 1398 1085.333 1378.667 1094 1386 1076 1404 1082 1416 1074 1414 1081.333 1432 1112.667 1428.667 1144.667 1364 1202.667 1352 1241.333 1336 1236 1318 1180.667 1320.667 1164.667 1293.333 1145.333 1288 1152 1277.333 1159.333 1277.333 1170 1264.667 1226 1246.667 1252 1219.333 1350.667 1256.667 1369.333 1291.333 1342.667 1305.333 1355.333 1336.667 1384 1354.667 1405.333 1375.333 1405.333 1399.333 1385.333 1414.667 1370.667 1414.667 1359.333 1427.333 1368 1447.333 1415.333 1441.333 1427.333 1450 1434 1434.667 1436 1442.667 1446.667 1432.667 1452 1441.333 1474 1426.667 1476.667 1394 1497.333 1368 1524 1384 1534 1404.667 1533.667 1426.333 1525 1431.333 1521 1442.667 1509 1448.333 1495.333 1446.667 1482 1460.667 1482.667 1474.333 1467.333 1472.333 1452.667 1479 1446.667 1493 1431.667 1492.333 1416.667 1466 1406 1458.667 1405.333 1468.667 1374 1472 1365.333 1486.667 1334.667 1476 1308 1454 1267.333 1504 1247.333 1514.667 1260.667 1524.667 1287.333 1526" />
      </g>
   </g>
</svg>
